<svg xmlns="http://www.w3.org/2000/svg" width="84" height="40" viewBox="0 0 84 40" fill="none">
  <path d="M5.23168 30.0279H5.28687C5.34688 30.0279 5.39886 30.0483 5.4428 30.0893C5.48834 30.1309 5.52558 30.1816 5.55479 30.2414C5.58399 30.3018 5.60676 30.3656 5.6215 30.4326C5.63757 30.5005 5.64427 30.5601 5.64427 30.6133V33.1569H2.06705V30.6133C2.06705 30.5601 2.07509 30.5005 2.08983 30.4326C2.10429 30.3656 2.12546 30.3018 2.15145 30.2414C2.17743 30.1816 2.21307 30.1309 2.25701 30.0893C2.30255 30.0483 2.35453 30.0279 2.41454 30.0279H2.46973V29.915H0.904297V30.0279H0.961095C1.01977 30.0279 1.07335 30.0483 1.11702 30.0893C1.16257 30.1309 1.19981 30.1816 1.22901 30.2414C1.25848 30.3018 1.28099 30.3656 1.29572 30.4326C1.31046 30.5005 1.3185 30.5601 1.3185 30.6133V36.6128C1.3185 36.6734 1.31046 36.7388 1.29572 36.8099C1.28099 36.881 1.25687 36.9488 1.22419 37.0127C1.19016 37.0765 1.15132 37.1288 1.10577 37.1705C1.06183 37.2114 1.01307 37.2317 0.961095 37.2317H0.904297V37.3446H2.46973V37.2317H2.41454C2.35453 37.2317 2.30416 37.2097 2.26344 37.1647C2.22298 37.1198 2.18708 37.0674 2.15627 37.007C2.12707 36.9472 2.10429 36.881 2.08983 36.8099C2.07509 36.7388 2.06705 36.6734 2.06705 36.6128V33.551H5.64427V36.6128C5.64427 36.6734 5.63757 36.7388 5.6215 36.8099C5.60676 36.881 5.58238 36.9488 5.54996 37.0127C5.51594 37.0765 5.47682 37.1288 5.43155 37.1705C5.38761 37.2114 5.33885 37.2317 5.28687 37.2317H5.23168V37.3446H6.79551V37.2317H6.74032C6.68834 37.2317 6.64119 37.2097 6.60073 37.1647C6.56001 37.1198 6.52438 37.0674 6.49357 37.007C6.46409 36.9472 6.43971 36.881 6.42203 36.8099C6.40247 36.7388 6.39283 36.6734 6.39283 36.6128V30.6133C6.39283 30.5601 6.40087 30.5005 6.41533 30.4326C6.43007 30.3656 6.45123 30.3018 6.47722 30.2414C6.50321 30.1816 6.53884 30.1309 6.58439 30.0893C6.62806 30.0483 6.68004 30.0279 6.74032 30.0279H6.79551V29.915H5.23168V30.0279Z" fill="#223126"/>
  <path d="M12.1444 36.3029C12.112 36.4126 12.06 36.5139 11.9885 36.6071C11.917 36.7012 11.831 36.7821 11.7254 36.8492C11.6215 36.917 11.4982 36.9506 11.3567 36.9506H8.90987V33.5395H10.7641C10.9428 33.5395 11.0888 33.5886 11.2011 33.6859C11.3131 33.784 11.3683 33.9001 11.3683 34.035H11.4803V32.6279H11.3683C11.3683 32.771 11.3099 32.8944 11.1944 32.9991C11.0792 33.1046 10.9364 33.1569 10.7641 33.1569H8.90987V30.3092H11.1555C11.4087 30.3092 11.5955 30.3746 11.7141 30.5062C11.8342 30.6378 11.9009 30.7892 11.9154 30.9616H12.0273V29.915H7.72461V30.0279H7.7798C7.83981 30.0279 7.89179 30.0483 7.93734 30.0893C7.981 30.1309 8.01985 30.1816 8.05415 30.2414C8.08817 30.3018 8.11416 30.3656 8.13211 30.4326C8.14979 30.5005 8.15971 30.5601 8.15971 30.6133V36.6357C8.15971 36.6954 8.14979 36.7592 8.13211 36.827C8.11416 36.8941 8.08817 36.9579 8.05415 37.0183C8.01985 37.0781 7.981 37.1288 7.93734 37.1705C7.89179 37.2114 7.83981 37.2317 7.7798 37.2317H7.72461V37.3446H12.3068V36.0275H12.1948C12.1948 36.1026 12.1784 36.1942 12.1444 36.3029Z" fill="#223126"/>
  <path d="M19.2388 36.8101C19.1496 36.7161 19.078 36.613 19.026 36.5003L16.4329 29.7461L13.8609 36.5345C13.7652 36.8117 13.5962 36.9508 13.3591 36.9508H12.8672V38.3578H12.9792C12.9856 38.2678 13.0132 38.1625 13.062 38.043C13.1107 37.9229 13.174 37.8116 13.2519 37.7103C13.3299 37.6097 13.4226 37.5231 13.5265 37.452C13.6302 37.3799 13.7457 37.3449 13.8724 37.3449H19.026C19.1528 37.3449 19.268 37.3783 19.3719 37.4462C19.4759 37.514 19.5686 37.5983 19.6465 37.6997C19.7242 37.801 19.7861 37.9114 19.8298 38.0316C19.8753 38.1518 19.9013 38.2606 19.9094 38.3578H20.0216V36.9508H19.5506C19.4322 36.9508 19.3283 36.9041 19.2388 36.8101ZM14.1076 36.9508L16.2545 31.356L18.4106 36.9508H14.1076Z" fill="#223126"/>
  <path d="M25.0851 34.0179C24.9567 33.8347 24.7879 33.6712 24.58 33.5289C24.3705 33.3857 24.1109 33.2844 23.7974 33.2247C23.9159 33.1642 24.0426 33.0873 24.1774 32.9943C24.3121 32.9001 24.4356 32.7857 24.5524 32.6508C24.6679 32.5151 24.7619 32.3613 24.8367 32.1889C24.9114 32.0164 24.9487 31.8217 24.9487 31.6034C24.9487 31.0933 24.7539 30.6845 24.3625 30.3763C23.9713 30.0688 23.4288 29.915 22.7354 29.915H20.9023V30.0279H20.9575C21.0175 30.0279 21.0711 30.0483 21.1199 30.0893C21.1687 30.1309 21.2091 30.1832 21.2431 30.247C21.2774 30.3108 21.3002 30.3763 21.3163 30.4441C21.331 30.512 21.3374 30.5716 21.3374 30.6239V36.6128C21.3374 36.6734 21.331 36.7388 21.3163 36.8099C21.3002 36.881 21.2774 36.9472 21.2431 37.007C21.2091 37.0674 21.1703 37.1198 21.1263 37.1647C21.0808 37.2097 21.0323 37.2317 20.9803 37.2317H20.9251V37.3446H22.9206C23.2404 37.3446 23.5507 37.307 23.8526 37.2317C24.153 37.1574 24.4209 37.0348 24.6548 36.8663C24.8887 36.697 25.077 36.4795 25.2182 36.213C25.3594 35.9474 25.4293 35.6186 25.4293 35.2287C25.4293 35.0259 25.4033 34.8191 25.353 34.609C25.3026 34.3988 25.2118 34.2026 25.0851 34.0179ZM22.0876 30.2756H22.6462C23.1153 30.2756 23.4907 30.4032 23.7699 30.66C24.049 30.9159 24.2001 31.2626 24.2229 31.6991V31.7784C24.2229 31.9288 24.2001 32.0834 24.1546 32.2421C24.1109 32.4006 24.0281 32.5453 23.9094 32.677C23.7894 32.8086 23.6319 32.9157 23.4336 32.9991C23.2372 33.0817 22.9806 33.1234 22.669 33.1234H22.0876V30.2756ZM24.6808 35.4257C24.6808 35.9154 24.5072 36.2973 24.161 36.5719C23.8138 36.8467 23.3396 36.9841 22.7354 36.9841H22.0876V33.4839H22.7127C23.3088 33.4839 23.7715 33.6418 24.0994 33.9581C24.4273 34.2745 24.6208 34.7218 24.6808 35.3015V35.4257Z" fill="#223126"/>
  <path d="M30.8396 30.0279H30.8948C30.9551 30.0279 31.0071 30.0483 31.0508 30.0893C31.0963 30.1309 31.1354 30.1816 31.1694 30.2414C31.2019 30.3018 31.2262 30.3656 31.241 30.4326C31.2571 30.5005 31.2635 30.5601 31.2635 30.6133V30.7596L27.5534 35.8141V30.6133C27.5534 30.5601 27.5598 30.5021 27.5759 30.4384C27.5906 30.3746 27.6118 30.3149 27.6426 30.2585C27.6718 30.2021 27.7074 30.1514 27.7482 30.1065C27.7886 30.0615 27.8358 30.0354 27.8877 30.0279H27.977V29.915H26.3906V30.0279H26.4458C26.5058 30.0279 26.5578 30.0483 26.6033 30.0893C26.6473 30.1309 26.6861 30.1816 26.7202 30.2414C26.7545 30.3018 26.777 30.3656 26.7933 30.4326C26.808 30.5005 26.8145 30.5601 26.8145 30.6133V36.6128C26.8145 36.6734 26.808 36.7388 26.7933 36.8099C26.777 36.881 26.7545 36.9488 26.7202 37.0127C26.6861 37.0765 26.6473 37.1288 26.6033 37.1705C26.5578 37.2114 26.5058 37.2317 26.4458 37.2317H26.3906V37.3446H27.977V37.2317H27.9218C27.8618 37.2317 27.8098 37.2097 27.7658 37.1647C27.7206 37.1198 27.6831 37.0674 27.6539 37.007C27.623 36.9472 27.5987 36.881 27.5807 36.8099C27.5614 36.7388 27.5534 36.6734 27.5534 36.6128V36.5115L31.2635 31.4571V36.6128C31.2635 36.6734 31.2571 36.7388 31.241 36.8099C31.2262 36.881 31.2019 36.9488 31.1694 37.0127C31.1354 37.0765 31.0963 37.1288 31.0508 37.1705C31.0071 37.2114 30.9551 37.2317 30.8948 37.2317H30.8396V37.3446H32.4262V37.2317H32.3711C32.311 37.2317 32.2591 37.2097 32.2135 37.1647C32.1696 37.1198 32.1323 37.065 32.1031 37.0012C32.0721 36.9374 32.0479 36.8721 32.03 36.8041C32.0104 36.7372 32.0024 36.6734 32.0024 36.6128V30.6133C32.0024 30.5601 32.0104 30.5005 32.03 30.4326C32.0479 30.3656 32.0721 30.3018 32.1031 30.2414C32.1323 30.1816 32.1696 30.1309 32.2135 30.0893C32.2591 30.0483 32.311 30.0279 32.3711 30.0279H32.4262V29.915H30.8396V30.0279Z" fill="#223126"/>
  <path d="M41.3584 36.787C41.2609 36.6635 41.1797 36.5377 41.1133 36.4101C41.045 36.2826 40.9898 36.1738 40.9442 36.0839L40.0741 34.2827C39.8937 33.9221 39.6746 33.645 39.4131 33.4495C39.1535 33.255 38.7881 33.1569 38.3187 33.1569L40.8339 30.489C40.9378 30.3688 41.0565 30.2659 41.1913 30.18C41.326 30.0934 41.456 30.0427 41.5824 30.0279V29.915H40.3647V30.0279C40.454 30.0279 40.4979 30.0688 40.4979 30.1514C40.4979 30.189 40.4832 30.2226 40.454 30.2528L37.9599 32.9321V30.6133C37.9599 30.5078 37.9907 30.3877 38.0508 30.2528C38.1092 30.1179 38.1922 30.0427 38.2962 30.0279H38.3854V29.915H36.8087V30.0279H36.8655C36.9239 30.0279 36.9775 30.0483 37.0214 30.0893C37.067 30.1309 37.1042 30.1816 37.1334 30.2414C37.1626 30.3018 37.1854 30.3656 37.1999 30.4326C37.2146 30.5005 37.2226 30.5601 37.2226 30.6133V32.9321L34.7415 30.2528C34.7106 30.2078 34.6962 30.1743 34.6962 30.1514C34.6962 30.0918 34.7366 30.0499 34.8194 30.0279V29.915H33.6017V30.0279C33.7349 30.0354 33.8632 30.0803 33.9865 30.1628C34.11 30.2454 34.2351 30.3541 34.3615 30.489L36.8767 33.1569C36.4288 33.1569 36.0698 33.255 35.797 33.4495C35.5259 33.645 35.3035 33.9221 35.1329 34.2827L34.2496 36.0839C34.204 36.1738 34.1472 36.2826 34.0759 36.4101C34.006 36.5377 33.9232 36.6635 33.8305 36.787C33.7365 36.9112 33.6309 37.0167 33.5123 37.1026C33.3922 37.1892 33.2623 37.2317 33.1211 37.2317V37.3446H33.6342C33.8437 37.3446 34.0189 37.3127 34.1603 37.249C34.3015 37.1852 34.425 37.1009 34.5287 36.9955C34.6327 36.8908 34.7238 36.7706 34.8033 36.6357C34.8813 36.5 34.9542 36.3619 35.0209 36.2188L35.9155 34.4061C36.0486 34.1363 36.2209 33.91 36.4288 33.726C36.638 33.542 36.9027 33.4495 37.2226 33.4495V36.6128C37.2226 36.6734 37.2146 36.7388 37.1999 36.8099C37.1854 36.881 37.1626 36.9488 37.1334 37.0127C37.1042 37.0765 37.067 37.1288 37.0214 37.1705C36.9775 37.2114 36.9239 37.2317 36.8655 37.2317H36.8087V37.3446H38.3854V37.2317H38.3074C38.2474 37.2317 38.197 37.2097 38.1563 37.1647C38.1159 37.1198 38.08 37.065 38.0508 37.0012C38.0199 36.9374 37.9972 36.8721 37.9827 36.8041C37.968 36.7372 37.9599 36.6734 37.9599 36.6128V33.4495C38.2962 33.4495 38.5657 33.5436 38.7717 33.7308C38.9764 33.9189 39.1452 34.1437 39.28 34.4061L40.1732 36.2188C40.2477 36.3692 40.3224 36.5115 40.3972 36.6464C40.4719 36.7821 40.5611 36.8999 40.6651 37.0012C40.7706 37.1026 40.8925 37.1852 41.0353 37.249C41.1765 37.3127 41.3472 37.3446 41.5484 37.3446H42.0746V37.2317C41.9334 37.2317 41.8018 37.1892 41.6832 37.1026C41.5631 37.0167 41.456 36.9112 41.3584 36.787Z" fill="#223126"/>
  <path d="M47.2266 30.0279H47.2818C47.3418 30.0279 47.3938 30.0483 47.4377 30.0893C47.483 30.1309 47.5221 30.1816 47.5562 30.2414C47.5886 30.3018 47.613 30.3656 47.6277 30.4326C47.6438 30.5005 47.6505 30.5601 47.6505 30.6133V30.7596L43.9401 35.8141V30.6133C43.9401 30.5601 43.9465 30.5021 43.9629 30.4384C43.9773 30.3746 43.9985 30.3149 44.0293 30.2585C44.0585 30.2021 44.0942 30.1514 44.1349 30.1065C44.1756 30.0615 44.2225 30.0354 44.2745 30.0279H44.3637V29.915H42.7773V30.0279H42.8325C42.8928 30.0279 42.9445 30.0483 42.9901 30.0893C43.034 30.1309 43.0729 30.1816 43.1071 30.2414C43.1412 30.3018 43.1639 30.3656 43.18 30.4326C43.1948 30.5005 43.2012 30.5601 43.2012 30.6133V36.6128C43.2012 36.6734 43.1948 36.7388 43.18 36.8099C43.1639 36.881 43.1412 36.9488 43.1071 37.0127C43.0729 37.0765 43.034 37.1288 42.9901 37.1705C42.9445 37.2114 42.8928 37.2317 42.8325 37.2317H42.7773V37.3446H44.3637V37.2317H44.3085C44.2485 37.2317 44.1965 37.2097 44.1528 37.1647C44.1073 37.1198 44.07 37.0674 44.0406 37.007C44.0098 36.9472 43.9854 36.881 43.9677 36.8099C43.9481 36.7388 43.9401 36.6734 43.9401 36.6128V36.5115L47.6505 31.4571V36.6128C47.6505 36.6734 47.6438 36.7388 47.6277 36.8099C47.613 36.881 47.5886 36.9488 47.5562 37.0127C47.5221 37.0765 47.483 37.1288 47.4377 37.1705C47.3938 37.2114 47.3418 37.2317 47.2818 37.2317H47.2266V37.3446H48.813V37.2317H48.7578C48.6978 37.2317 48.6458 37.2097 48.6002 37.1647C48.5563 37.1198 48.5191 37.065 48.4899 37.0012C48.459 36.9374 48.4347 36.8721 48.4167 36.8041C48.3972 36.7372 48.3891 36.6734 48.3891 36.6128V30.6133C48.3891 30.5601 48.3972 30.5005 48.4167 30.4326C48.4347 30.3656 48.459 30.3018 48.4899 30.2414C48.5191 30.1816 48.5563 30.1309 48.6002 30.0893C48.6458 30.0483 48.6978 30.0279 48.7578 30.0279H48.813V29.915H47.2266V30.0279Z" fill="#223126"/>
  <path d="M53.6218 36.0724L51.0287 29.915H49.8887V30.0279H49.9439C49.9958 30.0279 50.0446 30.0483 50.0901 30.0893C50.1338 30.1309 50.1713 30.1816 50.2005 30.2414C50.2313 30.3018 50.2525 30.3656 50.2686 30.4326C50.2833 30.5005 50.2897 30.5601 50.2897 30.6133V36.6128C50.2897 36.6734 50.2833 36.7388 50.2686 36.8099C50.2525 36.881 50.2313 36.9472 50.2005 37.007C50.1713 37.0674 50.1338 37.1198 50.0901 37.1647C50.0446 37.2097 49.9958 37.2317 49.9439 37.2317H49.8887V37.3446H51.1066V37.2317H51.0514C50.9911 37.2317 50.9392 37.2097 50.8939 37.1647C50.85 37.1198 50.8111 37.0674 50.7768 37.007C50.7428 36.9472 50.7184 36.881 50.7039 36.8099C50.6892 36.7388 50.6812 36.6734 50.6812 36.6128V31.0409L53.4203 37.4681L56.3042 30.6918V36.6128C56.3042 36.6734 56.2978 36.7388 56.2814 36.8099C56.267 36.881 56.2426 36.9472 56.2102 37.007C56.1759 37.0674 56.137 37.1198 56.0915 37.1647C56.0478 37.2097 55.999 37.2317 55.9471 37.2317H55.8903V37.3446H57.4782V37.2317H57.423C57.363 37.2317 57.311 37.2097 57.2655 37.1647C57.2218 37.1198 57.1827 37.0674 57.1487 37.007C57.1146 36.9472 57.0903 36.881 57.0755 36.8099C57.0611 36.7388 57.0528 36.6734 57.0528 36.6128V30.6133C57.0528 30.5601 57.0611 30.5005 57.0755 30.4326C57.0903 30.3656 57.1146 30.3018 57.1487 30.2414C57.1827 30.1816 57.2218 30.1309 57.2655 30.0893C57.311 30.0483 57.363 30.0279 57.423 30.0279H57.4782V29.915H56.215L53.6218 36.0724Z" fill="#223126"/>
  <path d="M65.0733 30.9457C64.7486 30.5966 64.3556 30.3186 63.8945 30.1126C63.4318 29.9066 62.9104 29.8027 62.3293 29.8027C61.7171 29.8027 61.173 29.9155 60.6974 30.1404C60.22 30.3661 59.8157 30.662 59.4843 31.0301C59.1516 31.3979 58.9013 31.8165 58.7293 32.285C58.5573 32.7543 58.4727 33.2293 58.4727 33.7092C58.4727 34.1974 58.5573 34.6659 58.7293 35.1163C58.9013 35.5667 59.1451 35.9641 59.4615 36.3092C59.7782 36.6551 60.1664 36.9322 60.6243 37.1424C61.0822 37.3524 61.5984 37.4579 62.1718 37.4579C62.7092 37.4579 63.2142 37.3622 63.6868 37.171C64.1608 36.9797 64.575 36.7147 64.9337 36.3771C65.2911 36.0394 65.5719 35.6339 65.7766 35.1612C65.9826 34.6887 66.085 34.1704 66.085 33.6079C66.085 33.1051 65.9974 32.6227 65.8219 32.1616C65.6466 31.6996 65.3964 31.2949 65.0733 30.9457ZM65.1513 34.8801C65.028 35.2627 64.8397 35.6134 64.5846 35.9323C64.3314 36.2512 64.0164 36.5144 63.6397 36.7204C63.2614 36.9265 62.8228 37.0409 62.3226 37.0638C61.8747 37.0638 61.4621 36.9584 61.0854 36.7482C60.7087 36.5381 60.3824 36.2642 60.1064 35.9265C59.8302 35.5889 59.6126 35.2119 59.4567 34.795C59.2992 34.3788 59.2212 33.9644 59.2212 33.5515C59.2212 33.1688 59.2879 32.7788 59.4227 32.3807C59.5575 31.9833 59.7522 31.6228 60.0105 31.2999C60.2688 30.9777 60.5804 30.7128 60.9458 30.5066C61.3112 30.2998 61.7268 30.1969 62.1897 30.1969C62.6669 30.1969 63.0972 30.304 63.4822 30.5181C63.8669 30.7315 64.1964 31.0095 64.4742 31.3504C64.7502 31.6921 64.9629 32.0732 65.1124 32.4934C65.2617 32.9137 65.3364 33.3298 65.3364 33.7428C65.3364 34.118 65.2748 34.4974 65.1513 34.8801Z" fill="#223126"/>
  <path d="M72.5954 36.4671C72.4427 36.6248 72.2771 36.7466 72.0985 36.8333C71.9184 36.9191 71.7381 36.9771 71.5562 37.0075C71.3727 37.0377 71.2151 37.0524 71.0804 37.0524C70.6112 37.0524 70.1759 36.9527 69.7732 36.754C69.3705 36.5553 69.0182 36.2928 68.7163 35.9658C68.4141 35.6396 68.1788 35.2643 68.0066 34.8407C67.8346 34.4164 67.7502 33.9831 67.7502 33.54C67.7502 33.15 67.815 32.756 67.9449 32.3585C68.0749 31.9603 68.2745 31.6023 68.5424 31.2834C68.8119 30.9645 69.1482 30.7053 69.554 30.5066C69.9615 30.3081 70.439 30.2082 70.9912 30.2082C71.1632 30.2082 71.3402 30.2255 71.5222 30.259C71.7057 30.2924 71.8761 30.3506 72.0368 30.4331C72.196 30.5157 72.3356 30.6343 72.4559 30.788C72.5743 30.9417 72.6571 31.1354 72.701 31.3676H72.813V30.1184C72.7238 30.1184 72.6327 30.1086 72.5402 30.0898C72.4459 30.0717 72.3436 30.0431 72.2316 30.0055C72.0757 29.9606 71.8988 29.9155 71.7006 29.8706C71.5042 29.8257 71.2818 29.8027 71.0364 29.8027C70.3498 29.8027 69.7536 29.9155 69.2473 30.1404C68.7407 30.3661 68.32 30.6604 67.9854 31.0243C67.6526 31.3881 67.4043 31.7993 67.2435 32.2571C67.0809 32.7149 67 33.1762 67 33.6414C67 34.1066 67.0809 34.5669 67.2435 35.0207C67.4043 35.4745 67.6478 35.8816 67.9758 36.2422C68.3021 36.602 68.7115 36.8946 69.2033 37.1202C69.6952 37.3451 70.2654 37.4579 70.9132 37.4579C71.1747 37.4579 71.4214 37.435 71.6569 37.39C71.8905 37.3451 72.1049 37.296 72.2999 37.2437C72.4475 37.206 72.5839 37.1726 72.7074 37.1424C72.8309 37.113 72.9477 37.0973 73.0597 37.0973V35.8481H72.9477C72.865 36.1031 72.7479 36.3092 72.5954 36.4671Z" fill="#223126"/>
  <path d="M73.6309 31.1424H73.7428C73.7428 31.0524 73.7573 30.96 73.7865 30.8659C73.8173 30.7727 73.8613 30.6861 73.9213 30.6076C73.9816 30.5283 74.0563 30.4629 74.1455 30.4107C74.2347 30.3583 74.3387 30.3313 74.4571 30.3313H75.7546V36.6128C75.7546 36.6734 75.7466 36.7388 75.7319 36.8099C75.7174 36.881 75.693 36.9472 75.6587 37.007C75.6263 37.0674 75.5875 37.1198 75.5419 37.1647C75.498 37.2097 75.4444 37.2317 75.386 37.2317H75.3292V37.3446H76.9171V37.2317H76.8603C76.8019 37.2317 76.7515 37.2097 76.7111 37.1647C76.6688 37.1198 76.6315 37.0674 76.5991 37.007C76.5648 36.9472 76.5404 36.881 76.526 36.8099C76.5112 36.7388 76.5032 36.6734 76.5032 36.6128V30.3313H77.8216C77.9419 30.3313 78.0458 30.3583 78.1351 30.4107C78.2243 30.4629 78.299 30.5283 78.359 30.6076C78.4193 30.6861 78.463 30.7727 78.4941 30.8659C78.5233 30.96 78.5377 31.0524 78.5377 31.1424H78.6497V29.915H73.6309V31.1424Z" fill="#223126"/>
  <path d="M82.9465 33.5339C82.6901 33.3654 82.3945 33.2452 82.0631 33.1741C81.732 33.103 81.3941 33.067 81.0515 33.067H80.4264V30.6469C80.4264 30.5414 80.4556 30.4163 80.5156 30.27C80.574 30.1236 80.6568 30.0427 80.7608 30.0279H80.8388V29.915H79.2637V30.0279H79.3189C79.3708 30.0279 79.4196 30.0499 79.4651 30.095C79.5091 30.1399 79.5479 30.1931 79.582 30.2528C79.6162 30.3133 79.6388 30.3803 79.6551 30.4556C79.6698 30.5307 79.6763 30.5945 79.6763 30.6469V36.6464C79.6763 36.6996 79.6682 36.7592 79.6487 36.827C79.6307 36.8941 79.6063 36.9579 79.5771 37.0183C79.5463 37.0781 79.5091 37.1288 79.4651 37.1705C79.4196 37.2114 79.3708 37.2317 79.3189 37.2317H79.2637V37.3446H81.209C81.5728 37.3446 81.9139 37.2955 82.2319 37.1983C82.5486 37.1009 82.8216 36.9603 83.052 36.7763C83.2843 36.5924 83.4662 36.3692 83.601 36.106C83.7341 35.8435 83.8022 35.5475 83.8022 35.2171C83.8022 34.8116 83.7242 34.4724 83.5667 34.1985C83.411 33.9245 83.2031 33.703 82.9465 33.5339ZM82.4546 36.5C82.0779 36.8009 81.4574 36.9506 80.5936 36.9506H80.4264V33.4495H80.7951C81.5257 33.4495 82.0779 33.6188 82.4546 33.9565C82.8312 34.2942 83.0196 34.7291 83.0196 35.2622C83.0196 35.7871 82.8312 36.2 82.4546 36.5Z" fill="#223126"/>
  <path d="M12.3443 2.34458C10.9317 1.2935 8.86264 0.767578 6.136 0.767578H0.904297V1.1385H1.08808C1.45667 1.18837 1.73898 1.43539 1.93553 1.8806C2.13207 2.32581 2.2306 2.72192 2.2306 3.06791V22.8443C2.2306 23.0424 2.20559 23.2586 2.15658 23.4936C2.10706 23.7288 2.03354 23.9452 1.93553 24.1429C1.83751 24.3411 1.71448 24.5138 1.56745 24.6621C1.41991 24.8107 1.25961 24.885 1.08808 24.885H0.904297V25.2559H6.06249V24.885H5.8782C5.68114 24.885 5.51522 24.8107 5.38045 24.6621C5.24516 24.5138 5.12264 24.3411 5.01237 24.1429C4.90159 23.9452 4.82144 23.7288 4.77294 23.4936C4.72342 23.2586 4.69892 23.0424 4.69892 22.8443V13.3828H6.10435C7.09066 13.3828 8.08309 13.2345 9.08164 12.9376C10.0802 12.6407 10.9797 12.214 11.7812 11.6575C12.5827 11.101 13.2295 10.4144 13.7232 9.59825C14.2158 8.78186 14.4629 7.85443 14.4629 6.81543C14.4629 4.88602 13.7564 3.39616 12.3443 2.34458ZM11.5867 9.07875C11.3151 9.64812 10.92 10.1548 10.4018 10.6C9.88315 11.0452 9.2348 11.404 8.4578 11.676C7.67978 11.9485 6.79762 12.0842 5.8103 12.0842H4.69892V2.06619H5.2176C6.476 2.06619 7.53786 2.20885 8.40216 2.49289C9.26594 2.77745 9.96381 3.16071 10.4947 3.64319C11.0252 4.12541 11.4075 4.68192 11.6424 5.31272C11.8767 5.94352 11.9941 6.61776 11.9941 7.33493C11.9941 7.92846 11.8583 8.51016 11.5867 9.07875Z" fill="#223126"/>
  <path d="M63.8527 22.3616C63.3489 22.8811 62.8026 23.2834 62.213 23.5674C61.6234 23.8522 61.0276 24.044 60.4262 24.1427C59.8238 24.2417 59.3026 24.291 58.86 24.291C57.3126 24.291 55.876 23.9635 54.5492 23.3078C53.2229 22.6526 52.0625 21.7866 51.0675 20.7106C50.0726 19.6346 49.2925 18.3979 48.7279 17.0001C48.1627 15.603 47.8804 14.1746 47.8804 12.7148C47.8804 11.4288 48.0954 10.1302 48.5252 8.81896C48.9545 7.50801 49.6121 6.32713 50.4963 5.27554C51.381 4.22446 52.4919 3.37106 53.8309 2.71533C55.1695 2.06036 56.7475 1.73211 58.5654 1.73211C59.13 1.73211 59.7135 1.78764 60.3154 1.89919C60.9173 2.0105 61.4819 2.20226 62.0103 2.47421C62.5382 2.74669 62.9987 3.13612 63.3923 3.64302C63.7849 4.15018 64.0554 4.7874 64.2024 5.55366H64.571V1.43522C64.2765 1.43522 63.9753 1.40463 63.6685 1.34243C63.3611 1.28099 63.0237 1.1882 62.6551 1.0643C62.1395 0.915724 61.5555 0.767407 60.9051 0.619089C60.2542 0.470515 59.5236 0.396484 58.7129 0.396484C56.4524 0.396484 54.488 0.767407 52.8176 1.50951C51.1472 2.25161 49.7611 3.22274 48.6605 4.42213C47.5598 5.6223 46.743 6.97643 46.2105 8.48505C45.6781 9.99393 45.4121 11.5152 45.4121 13.0487C45.4121 14.5828 45.6781 16.0976 46.2105 17.5939C46.743 19.0907 47.5471 20.4322 48.6237 21.6195C49.7004 22.8068 51.0492 23.7715 52.6705 24.5136C54.2914 25.2557 56.1706 25.6266 58.3076 25.6266C59.1673 25.6266 59.9841 25.5526 60.7575 25.404C61.5315 25.2557 62.237 25.0951 62.8761 24.9218C63.3673 24.7984 63.816 24.6869 64.2208 24.5879C64.6262 24.4892 65.0131 24.4393 65.3817 24.4393V20.3209H65.0131C64.7426 21.1622 64.3556 21.8421 63.8527 22.3616Z" fill="#223126"/>
  <path d="M67.2598 0.767578V4.81199H67.6278C67.6278 4.5151 67.6769 4.2123 67.7754 3.90281C67.8734 3.59383 68.0204 3.30928 68.2175 3.0494C68.414 2.78978 68.6596 2.57361 68.9541 2.4001C69.2492 2.22736 69.5928 2.14048 69.9859 2.14048H74.2599V22.8443C74.2599 23.0424 74.2354 23.2586 74.1864 23.4936C74.1368 23.7288 74.0572 23.9452 73.9469 24.1429C73.8362 24.3411 73.7075 24.5138 73.56 24.6621C73.4124 24.8107 73.2404 24.885 73.0444 24.885H72.8601V25.2559H78.0918V24.885H77.9075C77.7109 24.885 77.545 24.8107 77.4102 24.6621C77.2749 24.5138 77.1524 24.3411 77.0416 24.1429C76.9314 23.9452 76.8512 23.7288 76.8022 23.4936C76.7527 23.2586 76.7287 23.0424 76.7287 22.8443V2.14048H81.0762C81.4688 2.14048 81.8129 2.22736 82.1079 2.4001C82.4025 2.57361 82.6481 2.78978 82.8446 3.0494C83.0412 3.30928 83.1887 3.59383 83.2867 3.90281C83.3847 4.2123 83.4342 4.5151 83.4342 4.81199H83.8028V0.767578H67.2598Z" fill="#223126"/>
  <path d="M30.1577 1.14844C23.708 1.14844 18.4609 6.43249 18.4609 12.9275C18.4609 19.4224 23.708 24.7065 30.1577 24.7065C36.6074 24.7065 41.8544 19.4224 41.8544 12.9275C41.8544 6.43249 36.6074 1.14844 30.1577 1.14844ZM30.1577 24.3152C23.9224 24.3152 18.8494 19.2067 18.8494 12.9275C18.8494 6.64825 23.9224 1.53974 30.1577 1.53974C36.3932 1.53974 41.466 6.64825 41.466 12.9275C41.466 19.2067 36.3932 24.3152 30.1577 24.3152Z" fill="#223126"/>
  <path d="M30.1573 0.228516C23.204 0.228516 17.5469 5.92533 17.5469 12.9276C17.5469 19.9299 23.204 25.6267 30.1573 25.6267C37.1107 25.6267 42.7678 19.9299 42.7678 12.9276C42.7678 5.92533 37.1107 0.228516 30.1573 0.228516ZM30.1573 25.2354C23.4182 25.2354 17.9354 19.7142 17.9354 12.9276C17.9354 6.14101 23.4182 0.619822 30.1573 0.619822C36.8965 0.619822 42.3793 6.14101 42.3793 12.9276C42.3793 19.7142 36.8965 25.2354 30.1573 25.2354Z" fill="#223126"/>
  <path d="M31.472 18.6198C31.1437 15.5363 30.8154 12.4527 30.4904 9.36914C30.2827 11.3191 30.075 13.2658 29.8673 15.2158C29.1838 14.4533 28.5037 13.6909 27.8203 12.9284C28.4568 14.1193 29.0934 15.3069 29.7299 16.4978C29.5255 18.441 29.3178 20.3809 29.1101 22.3242H31.864C31.7802 21.5246 31.6931 20.7284 31.6093 19.9288C32.4335 18.7717 33.2576 17.6111 34.0818 16.4539C33.2107 17.1759 32.3397 17.8979 31.4686 18.6165" fill="#223126"/>
  <path d="M30.4863 2.67578L28.6738 5.24655H29.5683L30.4863 8.3706L31.4076 5.24655H32.302L30.4863 2.67578Z" fill="#223126"/>
  <path d="M34.0872 12.2471L31.8359 13.5662L32.516 13.8732L32.1475 16.5587L33.9063 14.5108L34.5864 14.8178L34.0872 12.2471Z" fill="#223126"/>
  <path d="M28.6177 18.5695L27.7131 16.019L28.3127 15.577L25.8438 14.7471L25.8773 17.3718L26.4803 16.9265L28.6177 18.5695Z" fill="#223126"/>
  <path d="M27.6829 8.76562L26.9727 11.0193L27.6125 10.8101L28.9761 12.8276L28.9224 10.3884L29.5623 10.1826L27.6829 8.76562Z" fill="#223126"/>
  <path d="M33.334 9.68261L33.9571 9.93226L33.3976 7.63477L31.4277 8.92015L32.0542 9.1698L31.8364 11.6022L33.334 9.68261Z" fill="#223126"/>
  <path d="M24.9258 11.7236L25.2876 13.2384L25.5791 12.9044L27.033 13.5724L26.1754 12.2128L26.4669 11.8788L24.9258 11.7236Z" fill="#223126"/>
  <path d="M35.8708 12.3545L36.1154 12.5738L36.2327 11.4268L35.1171 11.6899L35.365 11.9092L34.8691 12.9888L35.8708 12.3545Z" fill="#223126"/>
  <path d="M35.7625 17.0681L36.2617 16.029L35.1226 15.8975L35.2801 16.1842L34.4492 17.0344L35.605 16.778L35.7625 17.0681Z" fill="#223126"/>
  <path d="M28.8822 8.51535L28.9593 7.3278L29.2809 7.25358L28.4266 6.48438L27.9844 7.55047L28.306 7.47625L28.8822 8.51535Z" fill="#223126"/>
  <path d="M26.1814 10.5702L25.7425 7.34489L26.5566 6.97378L23.853 5.38477L23.25 8.47845L24.0674 8.10735L26.1814 10.5702Z" fill="#223126"/>
  <path d="M35.2335 7.34489L34.7946 10.5702L36.9085 8.10735L37.726 8.47845L37.1229 5.38477L34.416 6.97378L35.2335 7.34489Z" fill="#223126"/>
  <path d="M22.1746 14.0116L25.1496 15.2869L23.3438 12.5846L23.9134 11.8896L20.791 11.6602L21.6018 14.7066L22.1746 14.0116Z" fill="#223126"/>
  <path d="M37.059 11.8896L37.6319 12.5846L35.8262 15.2869L38.8011 14.0116L39.374 14.7066L40.1847 11.6602L37.059 11.8896Z" fill="#223126"/>
  <path d="M25.5852 21.0048L25.736 20.3065L28.2922 20.1142L26.0442 18.8693L26.195 18.1709L23.9102 19.156L25.5852 21.0048Z" fill="#223126"/>
  <path d="M35.2412 20.3065L35.3919 21.0048L37.067 19.156L34.7822 18.1709L34.9329 18.8693L32.6816 20.1108L35.2412 20.3065Z" fill="#223126"/>
  <path d="M21.9235 9.98673L23.2468 10.8909L22.6271 9.40645L22.9688 9.12306L21.4746 8.71484L21.5818 10.2701L21.9235 9.98673Z" fill="#223126"/>
  <path d="M39.0532 9.98673L39.3949 10.2701L39.5021 8.71484L38.008 9.12306L38.3497 9.40645L37.7266 10.8909L39.0532 9.98673Z" fill="#223126"/>
  <path d="M27.4537 6.20491L27.3129 4.59903L27.7284 4.43709L26.4285 3.58691L26.0566 5.09834L26.4687 4.9364L27.4537 6.20491Z" fill="#223126"/>
  <path d="M33.5208 6.20491L34.5058 4.9364L34.9178 5.09834L34.546 3.58691L33.2461 4.43709L33.6582 4.59903L33.5208 6.20491Z" fill="#223126"/>
  <path d="M22.6605 17.4794L24.674 17.9213L23.2267 16.447L23.5014 15.9443L21.5215 16.1737L22.3858 17.9821L22.6605 17.4794Z" fill="#223126"/>
  <path d="M38.3162 17.4794L38.5909 17.9821L39.4552 16.1737L37.4753 15.9443L37.75 16.447L36.3027 17.9213L38.3162 17.4794Z" fill="#223126"/>
</svg>